<?xml version="1.0" encoding="UTF-8" standalone="no"?>
<!-- Created with Inkscape (http://www.inkscape.org/) -->

<svg
   width="210mm"
   height="297mm"
   viewBox="0 0 210 297"
   version="1.1"
   id="svg5"
   inkscape:version="1.1.2 (b8e25be833, 2022-02-05)"
   sodipodi:docname="flower.svg"
   xmlns:inkscape="http://www.inkscape.org/namespaces/inkscape"
   xmlns:sodipodi="http://sodipodi.sourceforge.net/DTD/sodipodi-0.dtd"
   xmlns="http://www.w3.org/2000/svg"
   xmlns:svg="http://www.w3.org/2000/svg">
  <sodipodi:namedview
     id="namedview7"
     pagecolor="#ffffff"
     bordercolor="#666666"
     borderopacity="1.0"
     inkscape:pageshadow="2"
     inkscape:pageopacity="0.0"
     inkscape:pagecheckerboard="0"
     inkscape:document-units="mm"
     showgrid="false"
     inkscape:zoom="0.77771465"
     inkscape:cx="143.36878"
     inkscape:cy="561.25984"
     inkscape:window-width="2484"
     inkscape:window-height="1360"
     inkscape:window-x="956"
     inkscape:window-y="-1"
     inkscape:window-maximized="0"
     inkscape:current-layer="layer1" />
  <defs
     id="defs2" />
  <g
     inkscape:label="Layer 1"
     inkscape:groupmode="layer"
     id="layer1">
    <g
       id="g1617"
       transform="matrix(0.30097355,0,0,0.29269709,-62.154703,-39.756489)">
      <path
         sodipodi:type="star"
         style="opacity:1;fill:#ffaacc;fill-rule:evenodd"
         id="path836"
         inkscape:flatsided="false"
         sodipodi:sides="4"
         sodipodi:cx="250.73463"
         sodipodi:cy="360.02921"
         sodipodi:r1="78.767754"
         sodipodi:r2="121.18116"
         sodipodi:arg1="0.33517257"
         sodipodi:arg2="1.1205707"
         inkscape:rounded="0.5"
         inkscape:randomized="0"
         d="m 325.11924,385.93845 c -14.13865,40.59163 17.04979,64.49101 -21.65036,83.19608 -38.70015,18.70508 -38.05186,-20.58206 -78.64349,-34.72072 -40.59163,-14.13865 -64.49101,17.04979 -83.19608,-21.65036 -18.70508,-38.70015 20.58206,-38.05186 34.72072,-78.64349 14.13865,-40.59163 -17.04979,-64.49101 21.65036,-83.19608 38.70015,-18.70508 38.05186,20.58206 78.64349,34.72072 40.59163,14.13865 64.49101,-17.04979 83.19608,21.65036 18.70508,38.70015 -20.58206,38.05186 -34.72072,78.64349 z"
         transform="scale(0.26458333)"
         inkscape:transform-center-x="0.20818241"
         inkscape:transform-center-y="2.8630282" />
      <path
         sodipodi:type="star"
         style="opacity:0.5;fill:#ff5599;fill-rule:evenodd"
         id="path282"
         inkscape:flatsided="false"
         sodipodi:sides="4"
         sodipodi:cx="250.73463"
         sodipodi:cy="360.02921"
         sodipodi:r1="78.767754"
         sodipodi:r2="121.18116"
         sodipodi:arg1="0.33517257"
         sodipodi:arg2="1.1205707"
         inkscape:rounded="0.5"
         inkscape:randomized="0"
         d="m 325.11924,385.93845 c -14.13865,40.59163 17.04979,64.49101 -21.65036,83.19608 -38.70015,18.70508 -38.05186,-20.58206 -78.64349,-34.72072 -40.59163,-14.13865 -64.49101,17.04979 -83.19608,-21.65036 -18.70508,-38.70015 20.58206,-38.05186 34.72072,-78.64349 14.13865,-40.59163 -17.04979,-64.49101 21.65036,-83.19608 38.70015,-18.70508 38.05186,20.58206 78.64349,34.72072 40.59163,14.13865 64.49101,-17.04979 83.19608,21.65036 18.70508,38.70015 -20.58206,38.05186 -34.72072,78.64349 z"
         transform="matrix(0.18865096,-0.18551321,0.18551321,0.18865096,-45.684136,73.176769)"
         inkscape:transform-center-x="-1.8589801"
         inkscape:transform-center-y="2.1873395" />
      <circle
         style="fill:#ffff00;fill-rule:evenodd;stroke-width:0.106623"
         id="path53"
         cx="67.53093"
         cy="94.747421"
         r="4.592783" />
    </g>
    <g
       id="g1625"
       transform="matrix(0.30097355,0,0,0.29269709,-80.18563,-18.3235)">
      <path
         sodipodi:type="star"
         style="opacity:1;fill:#ffaacc;fill-rule:evenodd"
         id="path1619"
         inkscape:flatsided="false"
         sodipodi:sides="4"
         sodipodi:cx="250.73463"
         sodipodi:cy="360.02921"
         sodipodi:r1="78.767754"
         sodipodi:r2="121.18116"
         sodipodi:arg1="0.33517257"
         sodipodi:arg2="1.1205707"
         inkscape:rounded="0.5"
         inkscape:randomized="0"
         d="m 325.11924,385.93845 c -14.13865,40.59163 17.04979,64.49101 -21.65036,83.19608 -38.70015,18.70508 -38.05186,-20.58206 -78.64349,-34.72072 -40.59163,-14.13865 -64.49101,17.04979 -83.19608,-21.65036 -18.70508,-38.70015 20.58206,-38.05186 34.72072,-78.64349 14.13865,-40.59163 -17.04979,-64.49101 21.65036,-83.19608 38.70015,-18.70508 38.05186,20.58206 78.64349,34.72072 40.59163,14.13865 64.49101,-17.04979 83.19608,21.65036 18.70508,38.70015 -20.58206,38.05186 -34.72072,78.64349 z"
         transform="scale(0.26458333)"
         inkscape:transform-center-x="0.20818241"
         inkscape:transform-center-y="2.8630282" />
      <path
         sodipodi:type="star"
         style="opacity:0.5;fill:#ff5599;fill-rule:evenodd"
         id="path1621"
         inkscape:flatsided="false"
         sodipodi:sides="4"
         sodipodi:cx="250.73463"
         sodipodi:cy="360.02921"
         sodipodi:r1="78.767754"
         sodipodi:r2="121.18116"
         sodipodi:arg1="0.33517257"
         sodipodi:arg2="1.1205707"
         inkscape:rounded="0.5"
         inkscape:randomized="0"
         d="m 325.11924,385.93845 c -14.13865,40.59163 17.04979,64.49101 -21.65036,83.19608 -38.70015,18.70508 -38.05186,-20.58206 -78.64349,-34.72072 -40.59163,-14.13865 -64.49101,17.04979 -83.19608,-21.65036 -18.70508,-38.70015 20.58206,-38.05186 34.72072,-78.64349 14.13865,-40.59163 -17.04979,-64.49101 21.65036,-83.19608 38.70015,-18.70508 38.05186,20.58206 78.64349,34.72072 40.59163,14.13865 64.49101,-17.04979 83.19608,21.65036 18.70508,38.70015 -20.58206,38.05186 -34.72072,78.64349 z"
         transform="matrix(0.18865096,-0.18551321,0.18551321,0.18865096,-45.684136,73.176769)"
         inkscape:transform-center-x="-1.8589801"
         inkscape:transform-center-y="2.1873395" />
      <circle
         style="fill:#ffff00;fill-rule:evenodd;stroke-width:0.106623"
         id="circle1623"
         cx="67.53093"
         cy="94.747421"
         r="4.592783" />
    </g>
    <g
       id="g1633"
       transform="matrix(0.39118168,0,0,0.38042459,-50.920001,-64.383832)">
      <path
         sodipodi:type="star"
         style="opacity:1;fill:#ffaacc;fill-rule:evenodd"
         id="path1627"
         inkscape:flatsided="false"
         sodipodi:sides="4"
         sodipodi:cx="250.73463"
         sodipodi:cy="360.02921"
         sodipodi:r1="78.767754"
         sodipodi:r2="121.18116"
         sodipodi:arg1="0.33517257"
         sodipodi:arg2="1.1205707"
         inkscape:rounded="0.5"
         inkscape:randomized="0"
         d="m 325.11924,385.93845 c -14.13865,40.59163 17.04979,64.49101 -21.65036,83.19608 -38.70015,18.70508 -38.05186,-20.58206 -78.64349,-34.72072 -40.59163,-14.13865 -64.49101,17.04979 -83.19608,-21.65036 -18.70508,-38.70015 20.58206,-38.05186 34.72072,-78.64349 14.13865,-40.59163 -17.04979,-64.49101 21.65036,-83.19608 38.70015,-18.70508 38.05186,20.58206 78.64349,34.72072 40.59163,14.13865 64.49101,-17.04979 83.19608,21.65036 18.70508,38.70015 -20.58206,38.05186 -34.72072,78.64349 z"
         transform="scale(0.26458333)"
         inkscape:transform-center-x="0.20818241"
         inkscape:transform-center-y="2.8630282" />
      <path
         sodipodi:type="star"
         style="opacity:0.5;fill:#ff5599;fill-rule:evenodd"
         id="path1629"
         inkscape:flatsided="false"
         sodipodi:sides="4"
         sodipodi:cx="250.73463"
         sodipodi:cy="360.02921"
         sodipodi:r1="78.767754"
         sodipodi:r2="121.18116"
         sodipodi:arg1="0.33517257"
         sodipodi:arg2="1.1205707"
         inkscape:rounded="0.5"
         inkscape:randomized="0"
         d="m 325.11924,385.93845 c -14.13865,40.59163 17.04979,64.49101 -21.65036,83.19608 -38.70015,18.70508 -38.05186,-20.58206 -78.64349,-34.72072 -40.59163,-14.13865 -64.49101,17.04979 -83.19608,-21.65036 -18.70508,-38.70015 20.58206,-38.05186 34.72072,-78.64349 14.13865,-40.59163 -17.04979,-64.49101 21.65036,-83.19608 38.70015,-18.70508 38.05186,20.58206 78.64349,34.72072 40.59163,14.13865 64.49101,-17.04979 83.19608,21.65036 18.70508,38.70015 -20.58206,38.05186 -34.72072,78.64349 z"
         transform="matrix(0.18865096,-0.18551321,0.18551321,0.18865096,-45.684136,73.176769)"
         inkscape:transform-center-x="-1.8589801"
         inkscape:transform-center-y="2.1873395" />
      <circle
         style="fill:#ffff00;fill-rule:evenodd;stroke-width:0.106623"
         id="circle1631"
         cx="67.53093"
         cy="94.747421"
         r="4.592783" />
    </g>
    <g
       id="g1769"
       transform="matrix(0.39118168,0,0,0.38042459,-11.115878,-15.734348)">
      <path
         sodipodi:type="star"
         style="opacity:1;fill:#ffaacc;fill-rule:evenodd"
         id="path1763"
         inkscape:flatsided="false"
         sodipodi:sides="4"
         sodipodi:cx="250.73463"
         sodipodi:cy="360.02921"
         sodipodi:r1="78.767754"
         sodipodi:r2="121.18116"
         sodipodi:arg1="0.33517257"
         sodipodi:arg2="1.1205707"
         inkscape:rounded="0.5"
         inkscape:randomized="0"
         d="m 325.11924,385.93845 c -14.13865,40.59163 17.04979,64.49101 -21.65036,83.19608 -38.70015,18.70508 -38.05186,-20.58206 -78.64349,-34.72072 -40.59163,-14.13865 -64.49101,17.04979 -83.19608,-21.65036 -18.70508,-38.70015 20.58206,-38.05186 34.72072,-78.64349 14.13865,-40.59163 -17.04979,-64.49101 21.65036,-83.19608 38.70015,-18.70508 38.05186,20.58206 78.64349,34.72072 40.59163,14.13865 64.49101,-17.04979 83.19608,21.65036 18.70508,38.70015 -20.58206,38.05186 -34.72072,78.64349 z"
         transform="scale(0.26458333)"
         inkscape:transform-center-x="0.20818241"
         inkscape:transform-center-y="2.8630282" />
      <path
         sodipodi:type="star"
         style="opacity:0.5;fill:#ff5599;fill-rule:evenodd"
         id="path1765"
         inkscape:flatsided="false"
         sodipodi:sides="4"
         sodipodi:cx="250.73463"
         sodipodi:cy="360.02921"
         sodipodi:r1="78.767754"
         sodipodi:r2="121.18116"
         sodipodi:arg1="0.33517257"
         sodipodi:arg2="1.1205707"
         inkscape:rounded="0.5"
         inkscape:randomized="0"
         d="m 325.11924,385.93845 c -14.13865,40.59163 17.04979,64.49101 -21.65036,83.19608 -38.70015,18.70508 -38.05186,-20.58206 -78.64349,-34.72072 -40.59163,-14.13865 -64.49101,17.04979 -83.19608,-21.65036 -18.70508,-38.70015 20.58206,-38.05186 34.72072,-78.64349 14.13865,-40.59163 -17.04979,-64.49101 21.65036,-83.19608 38.70015,-18.70508 38.05186,20.58206 78.64349,34.72072 40.59163,14.13865 64.49101,-17.04979 83.19608,21.65036 18.70508,38.70015 -20.58206,38.05186 -34.72072,78.64349 z"
         transform="matrix(0.18865096,-0.18551321,0.18551321,0.18865096,-45.684136,73.176769)"
         inkscape:transform-center-x="-1.8589801"
         inkscape:transform-center-y="2.1873395" />
      <circle
         style="fill:#ffff00;fill-rule:evenodd;stroke-width:0.106623"
         id="circle1767"
         cx="67.53093"
         cy="94.747421"
         r="4.592783" />
    </g>
    <g
       id="g1777"
       transform="matrix(0.39118168,0,0,0.38042459,-28.466394,-79.012699)">
      <path
         sodipodi:type="star"
         style="opacity:1;fill:#ffaacc;fill-rule:evenodd"
         id="path1771"
         inkscape:flatsided="false"
         sodipodi:sides="4"
         sodipodi:cx="250.73463"
         sodipodi:cy="360.02921"
         sodipodi:r1="78.767754"
         sodipodi:r2="121.18116"
         sodipodi:arg1="0.33517257"
         sodipodi:arg2="1.1205707"
         inkscape:rounded="0.5"
         inkscape:randomized="0"
         d="m 325.11924,385.93845 c -14.13865,40.59163 17.04979,64.49101 -21.65036,83.19608 -38.70015,18.70508 -38.05186,-20.58206 -78.64349,-34.72072 -40.59163,-14.13865 -64.49101,17.04979 -83.19608,-21.65036 -18.70508,-38.70015 20.58206,-38.05186 34.72072,-78.64349 14.13865,-40.59163 -17.04979,-64.49101 21.65036,-83.19608 38.70015,-18.70508 38.05186,20.58206 78.64349,34.72072 40.59163,14.13865 64.49101,-17.04979 83.19608,21.65036 18.70508,38.70015 -20.58206,38.05186 -34.72072,78.64349 z"
         transform="scale(0.26458333)"
         inkscape:transform-center-x="0.20818241"
         inkscape:transform-center-y="2.8630282" />
      <path
         sodipodi:type="star"
         style="opacity:0.5;fill:#ff5599;fill-rule:evenodd"
         id="path1773"
         inkscape:flatsided="false"
         sodipodi:sides="4"
         sodipodi:cx="250.73463"
         sodipodi:cy="360.02921"
         sodipodi:r1="78.767754"
         sodipodi:r2="121.18116"
         sodipodi:arg1="0.33517257"
         sodipodi:arg2="1.1205707"
         inkscape:rounded="0.5"
         inkscape:randomized="0"
         d="m 325.11924,385.93845 c -14.13865,40.59163 17.04979,64.49101 -21.65036,83.19608 -38.70015,18.70508 -38.05186,-20.58206 -78.64349,-34.72072 -40.59163,-14.13865 -64.49101,17.04979 -83.19608,-21.65036 -18.70508,-38.70015 20.58206,-38.05186 34.72072,-78.64349 14.13865,-40.59163 -17.04979,-64.49101 21.65036,-83.19608 38.70015,-18.70508 38.05186,20.58206 78.64349,34.72072 40.59163,14.13865 64.49101,-17.04979 83.19608,21.65036 18.70508,38.70015 -20.58206,38.05186 -34.72072,78.64349 z"
         transform="matrix(0.18865096,-0.18551321,0.18551321,0.18865096,-45.684136,73.176769)"
         inkscape:transform-center-x="-1.8589801"
         inkscape:transform-center-y="2.1873395" />
      <circle
         style="fill:#ffff00;fill-rule:evenodd;stroke-width:0.106623"
         id="circle1775"
         cx="67.53093"
         cy="94.747421"
         r="4.592783" />
    </g>
    <g
       id="g1785"
       transform="matrix(0.39118168,0,0,0.38042459,-41.394228,-13.352903)">
      <path
         sodipodi:type="star"
         style="opacity:1;fill:#ffaacc;fill-rule:evenodd"
         id="path1779"
         inkscape:flatsided="false"
         sodipodi:sides="4"
         sodipodi:cx="250.73463"
         sodipodi:cy="360.02921"
         sodipodi:r1="78.767754"
         sodipodi:r2="121.18116"
         sodipodi:arg1="0.33517257"
         sodipodi:arg2="1.1205707"
         inkscape:rounded="0.5"
         inkscape:randomized="0"
         d="m 325.11924,385.93845 c -14.13865,40.59163 17.04979,64.49101 -21.65036,83.19608 -38.70015,18.70508 -38.05186,-20.58206 -78.64349,-34.72072 -40.59163,-14.13865 -64.49101,17.04979 -83.19608,-21.65036 -18.70508,-38.70015 20.58206,-38.05186 34.72072,-78.64349 14.13865,-40.59163 -17.04979,-64.49101 21.65036,-83.19608 38.70015,-18.70508 38.05186,20.58206 78.64349,34.72072 40.59163,14.13865 64.49101,-17.04979 83.19608,21.65036 18.70508,38.70015 -20.58206,38.05186 -34.72072,78.64349 z"
         transform="scale(0.26458333)"
         inkscape:transform-center-x="0.20818241"
         inkscape:transform-center-y="2.8630282" />
      <path
         sodipodi:type="star"
         style="opacity:0.5;fill:#ff5599;fill-rule:evenodd"
         id="path1781"
         inkscape:flatsided="false"
         sodipodi:sides="4"
         sodipodi:cx="250.73463"
         sodipodi:cy="360.02921"
         sodipodi:r1="78.767754"
         sodipodi:r2="121.18116"
         sodipodi:arg1="0.33517257"
         sodipodi:arg2="1.1205707"
         inkscape:rounded="0.5"
         inkscape:randomized="0"
         d="m 325.11924,385.93845 c -14.13865,40.59163 17.04979,64.49101 -21.65036,83.19608 -38.70015,18.70508 -38.05186,-20.58206 -78.64349,-34.72072 -40.59163,-14.13865 -64.49101,17.04979 -83.19608,-21.65036 -18.70508,-38.70015 20.58206,-38.05186 34.72072,-78.64349 14.13865,-40.59163 -17.04979,-64.49101 21.65036,-83.19608 38.70015,-18.70508 38.05186,20.58206 78.64349,34.72072 40.59163,14.13865 64.49101,-17.04979 83.19608,21.65036 18.70508,38.70015 -20.58206,38.05186 -34.72072,78.64349 z"
         transform="matrix(0.18865096,-0.18551321,0.18551321,0.18865096,-45.684136,73.176769)"
         inkscape:transform-center-x="-1.8589801"
         inkscape:transform-center-y="2.1873395" />
      <circle
         style="fill:#ffff00;fill-rule:evenodd;stroke-width:0.106623"
         id="circle1783"
         cx="67.53093"
         cy="94.747421"
         r="4.592783" />
    </g>
    <g
       id="g1793"
       transform="matrix(0.30097355,0,0,0.29269709,18.133952,-8.4575179)">
      <path
         sodipodi:type="star"
         style="opacity:1;fill:#ffaacc;fill-rule:evenodd"
         id="path1787"
         inkscape:flatsided="false"
         sodipodi:sides="4"
         sodipodi:cx="250.73463"
         sodipodi:cy="360.02921"
         sodipodi:r1="78.767754"
         sodipodi:r2="121.18116"
         sodipodi:arg1="0.33517257"
         sodipodi:arg2="1.1205707"
         inkscape:rounded="0.5"
         inkscape:randomized="0"
         d="m 325.11924,385.93845 c -14.13865,40.59163 17.04979,64.49101 -21.65036,83.19608 -38.70015,18.70508 -38.05186,-20.58206 -78.64349,-34.72072 -40.59163,-14.13865 -64.49101,17.04979 -83.19608,-21.65036 -18.70508,-38.70015 20.58206,-38.05186 34.72072,-78.64349 14.13865,-40.59163 -17.04979,-64.49101 21.65036,-83.19608 38.70015,-18.70508 38.05186,20.58206 78.64349,34.72072 40.59163,14.13865 64.49101,-17.04979 83.19608,21.65036 18.70508,38.70015 -20.58206,38.05186 -34.72072,78.64349 z"
         transform="scale(0.26458333)"
         inkscape:transform-center-x="0.20818241"
         inkscape:transform-center-y="2.8630282" />
      <path
         sodipodi:type="star"
         style="opacity:0.5;fill:#ff5599;fill-rule:evenodd"
         id="path1789"
         inkscape:flatsided="false"
         sodipodi:sides="4"
         sodipodi:cx="250.73463"
         sodipodi:cy="360.02921"
         sodipodi:r1="78.767754"
         sodipodi:r2="121.18116"
         sodipodi:arg1="0.33517257"
         sodipodi:arg2="1.1205707"
         inkscape:rounded="0.5"
         inkscape:randomized="0"
         d="m 325.11924,385.93845 c -14.13865,40.59163 17.04979,64.49101 -21.65036,83.19608 -38.70015,18.70508 -38.05186,-20.58206 -78.64349,-34.72072 -40.59163,-14.13865 -64.49101,17.04979 -83.19608,-21.65036 -18.70508,-38.70015 20.58206,-38.05186 34.72072,-78.64349 14.13865,-40.59163 -17.04979,-64.49101 21.65036,-83.19608 38.70015,-18.70508 38.05186,20.58206 78.64349,34.72072 40.59163,14.13865 64.49101,-17.04979 83.19608,21.65036 18.70508,38.70015 -20.58206,38.05186 -34.72072,78.64349 z"
         transform="matrix(0.18865096,-0.18551321,0.18551321,0.18865096,-45.684136,73.176769)"
         inkscape:transform-center-x="-1.8589801"
         inkscape:transform-center-y="2.1873395" />
      <circle
         style="fill:#ffff00;fill-rule:evenodd;stroke-width:0.106623"
         id="circle1791"
         cx="67.53093"
         cy="94.747421"
         r="4.592783" />
    </g>
    <g
       id="g1801"
       transform="matrix(0.30097355,0,0,0.29269709,36.505092,-25.127625)">
      <path
         sodipodi:type="star"
         style="opacity:1;fill:#ffaacc;fill-rule:evenodd"
         id="path1795"
         inkscape:flatsided="false"
         sodipodi:sides="4"
         sodipodi:cx="250.73463"
         sodipodi:cy="360.02921"
         sodipodi:r1="78.767754"
         sodipodi:r2="121.18116"
         sodipodi:arg1="0.33517257"
         sodipodi:arg2="1.1205707"
         inkscape:rounded="0.5"
         inkscape:randomized="0"
         d="m 325.11924,385.93845 c -14.13865,40.59163 17.04979,64.49101 -21.65036,83.19608 -38.70015,18.70508 -38.05186,-20.58206 -78.64349,-34.72072 -40.59163,-14.13865 -64.49101,17.04979 -83.19608,-21.65036 -18.70508,-38.70015 20.58206,-38.05186 34.72072,-78.64349 14.13865,-40.59163 -17.04979,-64.49101 21.65036,-83.19608 38.70015,-18.70508 38.05186,20.58206 78.64349,34.72072 40.59163,14.13865 64.49101,-17.04979 83.19608,21.65036 18.70508,38.70015 -20.58206,38.05186 -34.72072,78.64349 z"
         transform="scale(0.26458333)"
         inkscape:transform-center-x="0.20818241"
         inkscape:transform-center-y="2.8630282" />
      <path
         sodipodi:type="star"
         style="opacity:0.5;fill:#ff5599;fill-rule:evenodd"
         id="path1797"
         inkscape:flatsided="false"
         sodipodi:sides="4"
         sodipodi:cx="250.73463"
         sodipodi:cy="360.02921"
         sodipodi:r1="78.767754"
         sodipodi:r2="121.18116"
         sodipodi:arg1="0.33517257"
         sodipodi:arg2="1.1205707"
         inkscape:rounded="0.5"
         inkscape:randomized="0"
         d="m 325.11924,385.93845 c -14.13865,40.59163 17.04979,64.49101 -21.65036,83.19608 -38.70015,18.70508 -38.05186,-20.58206 -78.64349,-34.72072 -40.59163,-14.13865 -64.49101,17.04979 -83.19608,-21.65036 -18.70508,-38.70015 20.58206,-38.05186 34.72072,-78.64349 14.13865,-40.59163 -17.04979,-64.49101 21.65036,-83.19608 38.70015,-18.70508 38.05186,20.58206 78.64349,34.72072 40.59163,14.13865 64.49101,-17.04979 83.19608,21.65036 18.70508,38.70015 -20.58206,38.05186 -34.72072,78.64349 z"
         transform="matrix(0.18865096,-0.18551321,0.18551321,0.18865096,-45.684136,73.176769)"
         inkscape:transform-center-x="-1.8589801"
         inkscape:transform-center-y="2.1873395" />
      <circle
         style="fill:#ffff00;fill-rule:evenodd;stroke-width:0.106623"
         id="circle1799"
         cx="67.53093"
         cy="94.747421"
         r="4.592783" />
    </g>
    <g
       id="g1809"
       transform="matrix(0.30097355,0,0,0.29269709,-9.0825355,-30.230716)">
      <path
         sodipodi:type="star"
         style="opacity:1;fill:#ffaacc;fill-rule:evenodd"
         id="path1803"
         inkscape:flatsided="false"
         sodipodi:sides="4"
         sodipodi:cx="250.73463"
         sodipodi:cy="360.02921"
         sodipodi:r1="78.767754"
         sodipodi:r2="121.18116"
         sodipodi:arg1="0.33517257"
         sodipodi:arg2="1.1205707"
         inkscape:rounded="0.5"
         inkscape:randomized="0"
         d="m 325.11924,385.93845 c -14.13865,40.59163 17.04979,64.49101 -21.65036,83.19608 -38.70015,18.70508 -38.05186,-20.58206 -78.64349,-34.72072 -40.59163,-14.13865 -64.49101,17.04979 -83.19608,-21.65036 -18.70508,-38.70015 20.58206,-38.05186 34.72072,-78.64349 14.13865,-40.59163 -17.04979,-64.49101 21.65036,-83.19608 38.70015,-18.70508 38.05186,20.58206 78.64349,34.72072 40.59163,14.13865 64.49101,-17.04979 83.19608,21.65036 18.70508,38.70015 -20.58206,38.05186 -34.72072,78.64349 z"
         transform="scale(0.26458333)"
         inkscape:transform-center-x="0.20818241"
         inkscape:transform-center-y="2.8630282" />
      <path
         sodipodi:type="star"
         style="opacity:0.5;fill:#ff5599;fill-rule:evenodd"
         id="path1805"
         inkscape:flatsided="false"
         sodipodi:sides="4"
         sodipodi:cx="250.73463"
         sodipodi:cy="360.02921"
         sodipodi:r1="78.767754"
         sodipodi:r2="121.18116"
         sodipodi:arg1="0.33517257"
         sodipodi:arg2="1.1205707"
         inkscape:rounded="0.5"
         inkscape:randomized="0"
         d="m 325.11924,385.93845 c -14.13865,40.59163 17.04979,64.49101 -21.65036,83.19608 -38.70015,18.70508 -38.05186,-20.58206 -78.64349,-34.72072 -40.59163,-14.13865 -64.49101,17.04979 -83.19608,-21.65036 -18.70508,-38.70015 20.58206,-38.05186 34.72072,-78.64349 14.13865,-40.59163 -17.04979,-64.49101 21.65036,-83.19608 38.70015,-18.70508 38.05186,20.58206 78.64349,34.72072 40.59163,14.13865 64.49101,-17.04979 83.19608,21.65036 18.70508,38.70015 -20.58206,38.05186 -34.72072,78.64349 z"
         transform="matrix(0.18865096,-0.18551321,0.18551321,0.18865096,-45.684136,73.176769)"
         inkscape:transform-center-x="-1.8589801"
         inkscape:transform-center-y="2.1873395" />
      <circle
         style="fill:#ffff00;fill-rule:evenodd;stroke-width:0.106623"
         id="circle1807"
         cx="67.53093"
         cy="94.747421"
         r="4.592783" />
    </g>
    <g
       id="g1817"
       transform="matrix(0.30097355,0,0,0.29269709,-33.237175,-31.251337)">
      <path
         sodipodi:type="star"
         style="opacity:1;fill:#ffaacc;fill-rule:evenodd"
         id="path1811"
         inkscape:flatsided="false"
         sodipodi:sides="4"
         sodipodi:cx="250.73463"
         sodipodi:cy="360.02921"
         sodipodi:r1="78.767754"
         sodipodi:r2="121.18116"
         sodipodi:arg1="0.33517257"
         sodipodi:arg2="1.1205707"
         inkscape:rounded="0.5"
         inkscape:randomized="0"
         d="m 325.11924,385.93845 c -14.13865,40.59163 17.04979,64.49101 -21.65036,83.19608 -38.70015,18.70508 -38.05186,-20.58206 -78.64349,-34.72072 -40.59163,-14.13865 -64.49101,17.04979 -83.19608,-21.65036 -18.70508,-38.70015 20.58206,-38.05186 34.72072,-78.64349 14.13865,-40.59163 -17.04979,-64.49101 21.65036,-83.19608 38.70015,-18.70508 38.05186,20.58206 78.64349,34.72072 40.59163,14.13865 64.49101,-17.04979 83.19608,21.65036 18.70508,38.70015 -20.58206,38.05186 -34.72072,78.64349 z"
         transform="scale(0.26458333)"
         inkscape:transform-center-x="0.20818241"
         inkscape:transform-center-y="2.8630282" />
      <path
         sodipodi:type="star"
         style="opacity:0.5;fill:#ff5599;fill-rule:evenodd"
         id="path1813"
         inkscape:flatsided="false"
         sodipodi:sides="4"
         sodipodi:cx="250.73463"
         sodipodi:cy="360.02921"
         sodipodi:r1="78.767754"
         sodipodi:r2="121.18116"
         sodipodi:arg1="0.33517257"
         sodipodi:arg2="1.1205707"
         inkscape:rounded="0.5"
         inkscape:randomized="0"
         d="m 325.11924,385.93845 c -14.13865,40.59163 17.04979,64.49101 -21.65036,83.19608 -38.70015,18.70508 -38.05186,-20.58206 -78.64349,-34.72072 -40.59163,-14.13865 -64.49101,17.04979 -83.19608,-21.65036 -18.70508,-38.70015 20.58206,-38.05186 34.72072,-78.64349 14.13865,-40.59163 -17.04979,-64.49101 21.65036,-83.19608 38.70015,-18.70508 38.05186,20.58206 78.64349,34.72072 40.59163,14.13865 64.49101,-17.04979 83.19608,21.65036 18.70508,38.70015 -20.58206,38.05186 -34.72072,78.64349 z"
         transform="matrix(0.18865096,-0.18551321,0.18551321,0.18865096,-45.684136,73.176769)"
         inkscape:transform-center-x="-1.8589801"
         inkscape:transform-center-y="2.1873395" />
      <circle
         style="fill:#ffff00;fill-rule:evenodd;stroke-width:0.106623"
         id="circle1815"
         cx="67.53093"
         cy="94.747421"
         r="4.592783" />
    </g>
    <g
       id="g1825"
       transform="matrix(0.30097355,0,0,0.29269709,1.4638515,-57.447212)">
      <path
         sodipodi:type="star"
         style="opacity:1;fill:#ffaacc;fill-rule:evenodd"
         id="path1819"
         inkscape:flatsided="false"
         sodipodi:sides="4"
         sodipodi:cx="250.73463"
         sodipodi:cy="360.02921"
         sodipodi:r1="78.767754"
         sodipodi:r2="121.18116"
         sodipodi:arg1="0.33517257"
         sodipodi:arg2="1.1205707"
         inkscape:rounded="0.5"
         inkscape:randomized="0"
         d="m 325.11924,385.93845 c -14.13865,40.59163 17.04979,64.49101 -21.65036,83.19608 -38.70015,18.70508 -38.05186,-20.58206 -78.64349,-34.72072 -40.59163,-14.13865 -64.49101,17.04979 -83.19608,-21.65036 -18.70508,-38.70015 20.58206,-38.05186 34.72072,-78.64349 14.13865,-40.59163 -17.04979,-64.49101 21.65036,-83.19608 38.70015,-18.70508 38.05186,20.58206 78.64349,34.72072 40.59163,14.13865 64.49101,-17.04979 83.19608,21.65036 18.70508,38.70015 -20.58206,38.05186 -34.72072,78.64349 z"
         transform="scale(0.26458333)"
         inkscape:transform-center-x="0.20818241"
         inkscape:transform-center-y="2.8630282" />
      <path
         sodipodi:type="star"
         style="opacity:0.5;fill:#ff5599;fill-rule:evenodd"
         id="path1821"
         inkscape:flatsided="false"
         sodipodi:sides="4"
         sodipodi:cx="250.73463"
         sodipodi:cy="360.02921"
         sodipodi:r1="78.767754"
         sodipodi:r2="121.18116"
         sodipodi:arg1="0.33517257"
         sodipodi:arg2="1.1205707"
         inkscape:rounded="0.5"
         inkscape:randomized="0"
         d="m 325.11924,385.93845 c -14.13865,40.59163 17.04979,64.49101 -21.65036,83.19608 -38.70015,18.70508 -38.05186,-20.58206 -78.64349,-34.72072 -40.59163,-14.13865 -64.49101,17.04979 -83.19608,-21.65036 -18.70508,-38.70015 20.58206,-38.05186 34.72072,-78.64349 14.13865,-40.59163 -17.04979,-64.49101 21.65036,-83.19608 38.70015,-18.70508 38.05186,20.58206 78.64349,34.72072 40.59163,14.13865 64.49101,-17.04979 83.19608,21.65036 18.70508,38.70015 -20.58206,38.05186 -34.72072,78.64349 z"
         transform="matrix(0.18865096,-0.18551321,0.18551321,0.18865096,-45.684136,73.176769)"
         inkscape:transform-center-x="-1.8589801"
         inkscape:transform-center-y="2.1873395" />
      <circle
         style="fill:#ffff00;fill-rule:evenodd;stroke-width:0.106623"
         id="circle1823"
         cx="67.53093"
         cy="94.747421"
         r="4.592783" />
    </g>
    <g
       id="g1833"
       transform="matrix(0.30097355,0,0,0.29269709,-60.113464,-5.3956669)">
      <path
         sodipodi:type="star"
         style="opacity:1;fill:#ffaacc;fill-rule:evenodd"
         id="path1827"
         inkscape:flatsided="false"
         sodipodi:sides="4"
         sodipodi:cx="250.73463"
         sodipodi:cy="360.02921"
         sodipodi:r1="78.767754"
         sodipodi:r2="121.18116"
         sodipodi:arg1="0.33517257"
         sodipodi:arg2="1.1205707"
         inkscape:rounded="0.5"
         inkscape:randomized="0"
         d="m 325.11924,385.93845 c -14.13865,40.59163 17.04979,64.49101 -21.65036,83.19608 -38.70015,18.70508 -38.05186,-20.58206 -78.64349,-34.72072 -40.59163,-14.13865 -64.49101,17.04979 -83.19608,-21.65036 -18.70508,-38.70015 20.58206,-38.05186 34.72072,-78.64349 14.13865,-40.59163 -17.04979,-64.49101 21.65036,-83.19608 38.70015,-18.70508 38.05186,20.58206 78.64349,34.72072 40.59163,14.13865 64.49101,-17.04979 83.19608,21.65036 18.70508,38.70015 -20.58206,38.05186 -34.72072,78.64349 z"
         transform="scale(0.26458333)"
         inkscape:transform-center-x="0.20818241"
         inkscape:transform-center-y="2.8630282" />
      <path
         sodipodi:type="star"
         style="opacity:0.5;fill:#ff5599;fill-rule:evenodd"
         id="path1829"
         inkscape:flatsided="false"
         sodipodi:sides="4"
         sodipodi:cx="250.73463"
         sodipodi:cy="360.02921"
         sodipodi:r1="78.767754"
         sodipodi:r2="121.18116"
         sodipodi:arg1="0.33517257"
         sodipodi:arg2="1.1205707"
         inkscape:rounded="0.5"
         inkscape:randomized="0"
         d="m 325.11924,385.93845 c -14.13865,40.59163 17.04979,64.49101 -21.65036,83.19608 -38.70015,18.70508 -38.05186,-20.58206 -78.64349,-34.72072 -40.59163,-14.13865 -64.49101,17.04979 -83.19608,-21.65036 -18.70508,-38.70015 20.58206,-38.05186 34.72072,-78.64349 14.13865,-40.59163 -17.04979,-64.49101 21.65036,-83.19608 38.70015,-18.70508 38.05186,20.58206 78.64349,34.72072 40.59163,14.13865 64.49101,-17.04979 83.19608,21.65036 18.70508,38.70015 -20.58206,38.05186 -34.72072,78.64349 z"
         transform="matrix(0.18865096,-0.18551321,0.18551321,0.18865096,-45.684136,73.176769)"
         inkscape:transform-center-x="-1.8589801"
         inkscape:transform-center-y="2.1873395" />
      <circle
         style="fill:#ffff00;fill-rule:evenodd;stroke-width:0.106623"
         id="circle1831"
         cx="67.53093"
         cy="94.747421"
         r="4.592783" />
    </g>
    <g
       id="g1841"
       transform="matrix(0.30097355,0,0,0.29269709,-55.010371,-22.746182)">
      <path
         sodipodi:type="star"
         style="opacity:1;fill:#ffaacc;fill-rule:evenodd"
         id="path1835"
         inkscape:flatsided="false"
         sodipodi:sides="4"
         sodipodi:cx="250.73463"
         sodipodi:cy="360.02921"
         sodipodi:r1="78.767754"
         sodipodi:r2="121.18116"
         sodipodi:arg1="0.33517257"
         sodipodi:arg2="1.1205707"
         inkscape:rounded="0.5"
         inkscape:randomized="0"
         d="m 325.11924,385.93845 c -14.13865,40.59163 17.04979,64.49101 -21.65036,83.19608 -38.70015,18.70508 -38.05186,-20.58206 -78.64349,-34.72072 -40.59163,-14.13865 -64.49101,17.04979 -83.19608,-21.65036 -18.70508,-38.70015 20.58206,-38.05186 34.72072,-78.64349 14.13865,-40.59163 -17.04979,-64.49101 21.65036,-83.19608 38.70015,-18.70508 38.05186,20.58206 78.64349,34.72072 40.59163,14.13865 64.49101,-17.04979 83.19608,21.65036 18.70508,38.70015 -20.58206,38.05186 -34.72072,78.64349 z"
         transform="scale(0.26458333)"
         inkscape:transform-center-x="0.20818241"
         inkscape:transform-center-y="2.8630282" />
      <path
         sodipodi:type="star"
         style="opacity:0.5;fill:#ff5599;fill-rule:evenodd"
         id="path1837"
         inkscape:flatsided="false"
         sodipodi:sides="4"
         sodipodi:cx="250.73463"
         sodipodi:cy="360.02921"
         sodipodi:r1="78.767754"
         sodipodi:r2="121.18116"
         sodipodi:arg1="0.33517257"
         sodipodi:arg2="1.1205707"
         inkscape:rounded="0.5"
         inkscape:randomized="0"
         d="m 325.11924,385.93845 c -14.13865,40.59163 17.04979,64.49101 -21.65036,83.19608 -38.70015,18.70508 -38.05186,-20.58206 -78.64349,-34.72072 -40.59163,-14.13865 -64.49101,17.04979 -83.19608,-21.65036 -18.70508,-38.70015 20.58206,-38.05186 34.72072,-78.64349 14.13865,-40.59163 -17.04979,-64.49101 21.65036,-83.19608 38.70015,-18.70508 38.05186,20.58206 78.64349,34.72072 40.59163,14.13865 64.49101,-17.04979 83.19608,21.65036 18.70508,38.70015 -20.58206,38.05186 -34.72072,78.64349 z"
         transform="matrix(0.18865096,-0.18551321,0.18551321,0.18865096,-45.684136,73.176769)"
         inkscape:transform-center-x="-1.8589801"
         inkscape:transform-center-y="2.1873395" />
      <circle
         style="fill:#ffff00;fill-rule:evenodd;stroke-width:0.106623"
         id="circle1839"
         cx="67.53093"
         cy="94.747421"
         r="4.592783" />
    </g>
    <g
       id="g1849"
       transform="matrix(0.30097355,0,0,0.29269709,-18.268103,-50.64309)">
      <path
         sodipodi:type="star"
         style="opacity:1;fill:#ffaacc;fill-rule:evenodd"
         id="path1843"
         inkscape:flatsided="false"
         sodipodi:sides="4"
         sodipodi:cx="250.73463"
         sodipodi:cy="360.02921"
         sodipodi:r1="78.767754"
         sodipodi:r2="121.18116"
         sodipodi:arg1="0.33517257"
         sodipodi:arg2="1.1205707"
         inkscape:rounded="0.5"
         inkscape:randomized="0"
         d="m 325.11924,385.93845 c -14.13865,40.59163 17.04979,64.49101 -21.65036,83.19608 -38.70015,18.70508 -38.05186,-20.58206 -78.64349,-34.72072 -40.59163,-14.13865 -64.49101,17.04979 -83.19608,-21.65036 -18.70508,-38.70015 20.58206,-38.05186 34.72072,-78.64349 14.13865,-40.59163 -17.04979,-64.49101 21.65036,-83.19608 38.70015,-18.70508 38.05186,20.58206 78.64349,34.72072 40.59163,14.13865 64.49101,-17.04979 83.19608,21.65036 18.70508,38.70015 -20.58206,38.05186 -34.72072,78.64349 z"
         transform="scale(0.26458333)"
         inkscape:transform-center-x="0.20818241"
         inkscape:transform-center-y="2.8630282" />
      <path
         sodipodi:type="star"
         style="opacity:0.5;fill:#ff5599;fill-rule:evenodd"
         id="path1845"
         inkscape:flatsided="false"
         sodipodi:sides="4"
         sodipodi:cx="250.73463"
         sodipodi:cy="360.02921"
         sodipodi:r1="78.767754"
         sodipodi:r2="121.18116"
         sodipodi:arg1="0.33517257"
         sodipodi:arg2="1.1205707"
         inkscape:rounded="0.5"
         inkscape:randomized="0"
         d="m 325.11924,385.93845 c -14.13865,40.59163 17.04979,64.49101 -21.65036,83.19608 -38.70015,18.70508 -38.05186,-20.58206 -78.64349,-34.72072 -40.59163,-14.13865 -64.49101,17.04979 -83.19608,-21.65036 -18.70508,-38.70015 20.58206,-38.05186 34.72072,-78.64349 14.13865,-40.59163 -17.04979,-64.49101 21.65036,-83.19608 38.70015,-18.70508 38.05186,20.58206 78.64349,34.72072 40.59163,14.13865 64.49101,-17.04979 83.19608,21.65036 18.70508,38.70015 -20.58206,38.05186 -34.72072,78.64349 z"
         transform="matrix(0.18865096,-0.18551321,0.18551321,0.18865096,-45.684136,73.176769)"
         inkscape:transform-center-x="-1.8589801"
         inkscape:transform-center-y="2.1873395" />
      <circle
         style="fill:#ffff00;fill-rule:evenodd;stroke-width:0.106623"
         id="circle1847"
         cx="67.53093"
         cy="94.747421"
         r="4.592783" />
    </g>
    <g
       id="g1857"
       transform="matrix(0.30097355,0,0,0.29269709,12.350462,-27.168862)">
      <path
         sodipodi:type="star"
         style="opacity:1;fill:#ffaacc;fill-rule:evenodd"
         id="path1851"
         inkscape:flatsided="false"
         sodipodi:sides="4"
         sodipodi:cx="250.73463"
         sodipodi:cy="360.02921"
         sodipodi:r1="78.767754"
         sodipodi:r2="121.18116"
         sodipodi:arg1="0.33517257"
         sodipodi:arg2="1.1205707"
         inkscape:rounded="0.5"
         inkscape:randomized="0"
         d="m 325.11924,385.93845 c -14.13865,40.59163 17.04979,64.49101 -21.65036,83.19608 -38.70015,18.70508 -38.05186,-20.58206 -78.64349,-34.72072 -40.59163,-14.13865 -64.49101,17.04979 -83.19608,-21.65036 -18.70508,-38.70015 20.58206,-38.05186 34.72072,-78.64349 14.13865,-40.59163 -17.04979,-64.49101 21.65036,-83.19608 38.70015,-18.70508 38.05186,20.58206 78.64349,34.72072 40.59163,14.13865 64.49101,-17.04979 83.19608,21.65036 18.70508,38.70015 -20.58206,38.05186 -34.72072,78.64349 z"
         transform="scale(0.26458333)"
         inkscape:transform-center-x="0.20818241"
         inkscape:transform-center-y="2.8630282" />
      <path
         sodipodi:type="star"
         style="opacity:0.5;fill:#ff5599;fill-rule:evenodd"
         id="path1853"
         inkscape:flatsided="false"
         sodipodi:sides="4"
         sodipodi:cx="250.73463"
         sodipodi:cy="360.02921"
         sodipodi:r1="78.767754"
         sodipodi:r2="121.18116"
         sodipodi:arg1="0.33517257"
         sodipodi:arg2="1.1205707"
         inkscape:rounded="0.5"
         inkscape:randomized="0"
         d="m 325.11924,385.93845 c -14.13865,40.59163 17.04979,64.49101 -21.65036,83.19608 -38.70015,18.70508 -38.05186,-20.58206 -78.64349,-34.72072 -40.59163,-14.13865 -64.49101,17.04979 -83.19608,-21.65036 -18.70508,-38.70015 20.58206,-38.05186 34.72072,-78.64349 14.13865,-40.59163 -17.04979,-64.49101 21.65036,-83.19608 38.70015,-18.70508 38.05186,20.58206 78.64349,34.72072 40.59163,14.13865 64.49101,-17.04979 83.19608,21.65036 18.70508,38.70015 -20.58206,38.05186 -34.72072,78.64349 z"
         transform="matrix(0.18865096,-0.18551321,0.18551321,0.18865096,-45.684136,73.176769)"
         inkscape:transform-center-x="-1.8589801"
         inkscape:transform-center-y="2.1873395" />
      <circle
         style="fill:#ffff00;fill-rule:evenodd;stroke-width:0.106623"
         id="circle1855"
         cx="67.53093"
         cy="94.747421"
         r="4.592783" />
    </g>
    <g
       id="g1865"
       transform="matrix(0.30097355,0,0,0.29269709,17.453552,-44.859583)">
      <path
         sodipodi:type="star"
         style="opacity:1;fill:#ffaacc;fill-rule:evenodd"
         id="path1859"
         inkscape:flatsided="false"
         sodipodi:sides="4"
         sodipodi:cx="250.73463"
         sodipodi:cy="360.02921"
         sodipodi:r1="78.767754"
         sodipodi:r2="121.18116"
         sodipodi:arg1="0.33517257"
         sodipodi:arg2="1.1205707"
         inkscape:rounded="0.5"
         inkscape:randomized="0"
         d="m 325.11924,385.93845 c -14.13865,40.59163 17.04979,64.49101 -21.65036,83.19608 -38.70015,18.70508 -38.05186,-20.58206 -78.64349,-34.72072 -40.59163,-14.13865 -64.49101,17.04979 -83.19608,-21.65036 -18.70508,-38.70015 20.58206,-38.05186 34.72072,-78.64349 14.13865,-40.59163 -17.04979,-64.49101 21.65036,-83.19608 38.70015,-18.70508 38.05186,20.58206 78.64349,34.72072 40.59163,14.13865 64.49101,-17.04979 83.19608,21.65036 18.70508,38.70015 -20.58206,38.05186 -34.72072,78.64349 z"
         transform="scale(0.26458333)"
         inkscape:transform-center-x="0.20818241"
         inkscape:transform-center-y="2.8630282" />
      <path
         sodipodi:type="star"
         style="opacity:0.5;fill:#ff5599;fill-rule:evenodd"
         id="path1861"
         inkscape:flatsided="false"
         sodipodi:sides="4"
         sodipodi:cx="250.73463"
         sodipodi:cy="360.02921"
         sodipodi:r1="78.767754"
         sodipodi:r2="121.18116"
         sodipodi:arg1="0.33517257"
         sodipodi:arg2="1.1205707"
         inkscape:rounded="0.5"
         inkscape:randomized="0"
         d="m 325.11924,385.93845 c -14.13865,40.59163 17.04979,64.49101 -21.65036,83.19608 -38.70015,18.70508 -38.05186,-20.58206 -78.64349,-34.72072 -40.59163,-14.13865 -64.49101,17.04979 -83.19608,-21.65036 -18.70508,-38.70015 20.58206,-38.05186 34.72072,-78.64349 14.13865,-40.59163 -17.04979,-64.49101 21.65036,-83.19608 38.70015,-18.70508 38.05186,20.58206 78.64349,34.72072 40.59163,14.13865 64.49101,-17.04979 83.19608,21.65036 18.70508,38.70015 -20.58206,38.05186 -34.72072,78.64349 z"
         transform="matrix(0.18865096,-0.18551321,0.18551321,0.18865096,-45.684136,73.176769)"
         inkscape:transform-center-x="-1.8589801"
         inkscape:transform-center-y="2.1873395" />
      <circle
         style="fill:#ffff00;fill-rule:evenodd;stroke-width:0.106623"
         id="circle1863"
         cx="67.53093"
         cy="94.747421"
         r="4.592783" />
    </g>
  </g>
</svg>
